HIERARCHY
ROOT Hips
{
	OFFSET 0.000000 0.000000 0.000000
	CHANNELS 6 Xposition Yposition Zposition Zrotation Yrotation Xrotation 
	JOINT LHipJoint
	{
		OFFSET 0.000000 0.000000 0.000000
		CHANNELS 3 Zrotation Yrotation Xrotation
		JOINT LeftUpLeg
		{
			OFFSET 1.363060 -1.794630 0.839290
			CHANNELS 3 Zrotation Yrotation Xrotation
			JOINT LeftLeg
			{
				OFFSET 2.448110 -6.726130 0.000000
				CHANNELS 3 Zrotation Yrotation Xrotation
				JOINT LeftFoot
				{
					OFFSET 2.562200 -7.039590 0.000000
					CHANNELS 3 Zrotation Yrotation Xrotation
					JOINT LeftToeBase
					{
						OFFSET 0.157640 -0.433110 2.322550
						CHANNELS 3 Zrotation Yrotation Xrotation
						End Site
						{
							OFFSET 0.000000 0.000000 0.000000
						}
					}
				}
			}
		}
	}
	JOINT RHipJoint
	{
		OFFSET 0.000000 0.000000 0.000000
		CHANNELS 3 Zrotation Yrotation Xrotation
		JOINT RightUpLeg
		{
			OFFSET -1.305520 -1.794630 0.839290
			CHANNELS 3 Zrotation Yrotation Xrotation
			JOINT RightLeg
			{
				OFFSET -2.542530 -6.985550 0.000000
				CHANNELS 3 Zrotation Yrotation Xrotation
				JOINT RightFoot
				{
					OFFSET -2.568260 -7.056230 0.000000
					CHANNELS 3 Zrotation Yrotation Xrotation
					JOINT RightToeBase
					{
						OFFSET -0.164730 -0.452590 2.363150
						CHANNELS 3 Zrotation Yrotation Xrotation
						End Site
						{
							OFFSET 0.000000 0.000000 0.000000
						}
					}
				}
			}
		}
	}
}
MOTION
Frames: 25
Frame Time: 0.008333
1.367694 17.190600 2.196994 -1.412174 -69.755665 9.297729 -9.320627 2.031280 6.057371 -10.343400 -15.782201 -12.938966 -1.790895 -0.135179 16.825463 1.610921 7.583623 -11.441240 -0.587400 -0.000000 -29.938500 9.693646 -2.370640 -0.547961 6.745691 -13.057790 -3.044084 1.516031 0.381458 8.610169 -3.058799 -15.696696 -5.234436 -1.558200 -0.000000 -61.211900
1.384021 17.189205 2.225971 -2.066941 -69.307564 9.836301 -9.372739 2.020056 6.060723 -10.116589 -15.872139 -13.051679 -1.777146 -0.098191 17.156692 1.568222 7.304087 -11.532206 -0.590300 0.000001 -30.093201 9.664344 -2.315986 -0.718957 6.964659 -13.345915 -4.655930 1.512152 0.090806 11.886104 -3.072610 -15.549674 -5.847070 -1.341200 0.000000 -60.827900
1.401655 17.188637 2.254116 -2.592782 -68.961690 10.351700 -9.422033 2.008121 6.070406 -9.919922 -15.948007 -13.264381 -1.763976 -0.070601 17.424694 1.532618 7.070651 -11.587527 -0.587600 -0.000000 -30.210300 9.649789 -2.247704 -0.853038 7.135164 -13.595749 -6.491451 1.518608 -0.182264 15.009594 -3.025938 -15.147988 -6.340379 -1.139700 0.000000 -60.554300
1.420889 17.189349 2.281944 -3.043777 -68.731115 10.896910 -9.473785 1.992401 6.077975 -9.738045 -15.985569 -13.573670 -1.749615 -0.052725 17.621890 1.502826 6.877672 -11.604742 -0.579400 0.000000 -30.305000 9.637816 -2.163386 -0.938106 7.284574 -13.735308 -8.488912 1.539307 -0.421242 17.807746 -2.930125 -14.522920 -6.741075 -0.958000 -0.000000 -60.446300
1.441599 17.191827 2.310371 -3.488679 -68.621304 11.553662 -9.535192 1.971831 6.081447 -9.542531 -15.954041 -14.016819 -1.731812 -0.043906 17.771520 1.475399 6.702304 -11.588373 -0.566000 0.000000 -30.381400 9.614398 -2.063135 -0.959470 7.452780 -13.706506 -10.634245 1.581502 -0.614604 20.169443 -2.798464 -13.706937 -7.100213 -0.791100 -0.000000 -60.538800
1.464466 17.196456 2.339758 -3.969315 -68.646780 12.350915 -9.609813 1.942891 6.071969 -9.326586 -15.843467 -14.565143 -1.708826 -0.044337 17.855208 1.451888 6.557215 -11.534280 -0.547700 0.000000 -30.452099 9.568698 -1.943785 -0.918329 7.647756 -13.475506 -12.885627 1.651345 -0.757011 22.010741 -2.641419 -12.726262 -7.461797 -0.634300 0.000000 -60.878000
1.489628 17.203368 2.370736 -4.531027 -68.814350 13.341939 -9.701370 1.903871 6.047622 -9.077009 -15.641702 -15.238348 -1.679183 -0.053117 17.889606 1.432031 6.438871 -11.447433 -0.525400 0.000000 -30.515500 9.491057 -1.804812 -0.808009 7.881889 -13.011364 -15.246640 1.754281 -0.845204 23.293050 -2.470786 -11.621601 -7.860865 -0.486500 -0.000000 -61.468100
1.517581 17.212530 2.403514 -5.205513 -69.132705 14.559219 -9.810896 1.851896 6.004708 -8.792974 -15.349144 -16.038223 -1.641933 -0.069359 17.880669 1.417995 6.359633 -11.330523 -0.499899 -0.000000 -30.568700 9.374747 -1.645004 -0.624393 8.148946 -12.286986 -17.715941 1.892434 -0.877706 23.995711 -2.298022 -10.445294 -8.306756 -0.352200 0.000000 -62.280400
1.548751 17.223642 2.438081 -6.018770 -69.608196 16.031517 -9.937922 1.783974 5.939245 -8.478977 -14.971545 -16.967067 -1.596800 -0.091710 17.838527 1.412362 6.333152 -11.188907 -0.472400 0.000000 -30.603600 9.215263 -1.464284 -0.362195 8.430206 -11.278893 -20.293295 2.064865 -0.852901 24.110645 -2.134251 -9.260352 -8.782687 -0.239500 0.000000 -63.243600
1.583192 17.236212 2.474304 -6.995029 -70.243448 17.789675 -10.081206 1.697384 5.846443 -8.143330 -14.514825 -18.029436 -1.544303 -0.118331 17.778843 1.417379 6.369467 -11.030964 -0.443899 0.000000 -30.612100 9.009788 -1.264755 -0.013852 8.696335 -9.966423 -22.978576 2.267429 -0.768025 23.638168 -1.990074 -8.138468 -9.248058 -0.156800 0.000001 -64.249800
1.621286 17.249654 2.511594 -8.150655 -71.038154 19.846420 -10.237351 1.588563 5.719395 -7.802863 -13.995335 -19.211609 -1.485507 -0.147317 17.708105 1.436436 6.486532 -10.862536 -0.415000 0.000000 -30.581700 8.758722 -1.049341 0.425849 8.898804 -8.341930 -25.764707 2.492223 -0.620022 22.590643 -1.873764 -7.150259 -9.644465 -0.110300 -0.000000 -65.177000
1.662972 17.263294 2.549199 -9.498474 -71.986311 22.210558 -10.402351 1.454650 5.550316 -7.477284 -13.428573 -20.495203 -1.422307 -0.176647 17.634247 1.471911 6.695264 -10.690588 -0.386000 -0.000000 -30.501600 8.465018 -0.823259 0.960325 8.979925 -6.418500 -28.648022 2.728292 -0.405597 20.998234 -1.790218 -6.356391 -9.905417 -0.104000 -0.000000 -65.917100
1.708295 17.276443 2.586325 -11.054988 -73.074170 24.885606 -10.572021 1.293474 5.331643 -7.186619 -12.829454 -21.853929 -1.357012 -0.204287 17.564063 1.525120 7.000287 -10.521207 -0.356700 0.000000 -30.363900 8.133952 -0.593131 1.587347 8.879643 -4.238149 -31.629195 2.962060 -0.123089 18.915781 -1.739637 -5.796760 -9.967349 -0.140500 -0.000000 -66.400800
1.757008 17.288557 2.622191 -12.832308 -74.282579 27.862123 -10.741028 1.104561 5.058741 -6.952240 -12.216811 -23.247928 -1.292151 -0.229092 17.496541 1.596833 7.404167 -10.357792 -0.326500 0.000001 -30.160600 7.773953 -0.365602 2.291933 8.548116 -1.886614 -34.716945 3.179168 0.222849 16.440923 -1.714885 -5.470435 -9.786007 -0.221600 -0.000000 -66.608400
1.808893 17.299363 2.656374 -14.865300 -75.585933 31.143747 -10.905497 0.889589 4.732055 -6.787734 -11.603154 -24.637555 -1.229951 -0.250444 17.430747 1.685959 7.899185 -10.202497 -0.294900 -0.000000 -29.889300 7.393532 -0.147464 3.045657 7.970006 0.518849 -37.927702 3.368416 0.618330 13.714470 -1.702088 -5.332263 -9.348052 -0.347000 0.000000 -66.562899
1.863629 17.308766 2.688946 -17.231309 -76.954424 34.774253 -11.064867 0.651938 4.358296 -6.694849 -10.991775 -25.992535 -1.171974 -0.268351 17.366939 1.789342 8.466194 -10.056536 -0.260899 0.000000 -29.554600 6.998484 0.053764 3.810883 7.177619 2.854425 -41.279951 3.526697 1.040399 10.905959 -1.682914 -5.299239 -8.676254 -0.510400 -0.000000 -66.318200
1.920424 17.316907 2.720597 -20.067083 -78.352548 38.866848 -11.223348 0.394716 3.948829 -6.662552 -10.374703 -27.301995 -1.119051 -0.283526 17.308521 1.901813 9.074683 -9.920968 -0.224300 0.000001 -29.169100 6.589301 0.228099 4.553249 6.243893 5.027644 -44.787649 3.661271 1.463328 8.177766 -1.639828 -5.275317 -7.822258 -0.698400 -0.000001 -65.946400
1.978481 17.323956 2.752247 -23.579390 -79.736301 43.615069 -11.388922 0.117503 3.515898 -6.670748 -9.736919 -28.575002 -1.071406 -0.297439 17.261308 2.016696 9.686247 -9.795882 -0.185100 0.000000 -28.749300 6.161661 0.362441 5.253053 5.251679 6.999441 -48.454767 3.786123 1.867131 5.645004 -1.561140 -5.181384 -6.847655 -0.892600 0.000000 -65.527600
2.036679 17.330036 2.784766 -28.014369 -81.048811 49.268811 -11.568757 -0.183782 3.070746 -6.698786 -9.065177 -29.832915 -1.029256 -0.312978 17.231784 2.126769 10.260329 -9.680693 -0.143900 0.000000 -28.318700 5.711765 0.440041 5.908745 4.264349 8.775477 -52.274053 3.914960 2.242093 3.358356 -1.442898 -4.971816 -5.806437 -1.075099 -0.000000 -65.151300
2.093685 17.335020 2.818659 -33.597474 -82.220816 56.067085 -11.761483 -0.514735 2.623681 -6.729953 -8.357758 -31.100574 -0.993209 -0.334863 17.223128 2.225652 10.761985 -9.574011 -0.101200 0.000000 -27.890100 5.245377 0.443668 6.532815 3.310042 10.379708 -56.232645 4.055303 2.587461 1.311787 -1.287514 -4.633182 -4.736708 -1.232000 -0.000000 -64.895400
2.148340 17.338704 2.854062 -40.439088 -83.176969 64.133718 -11.951748 -0.877085 2.183837 -6.752369 -7.625459 -32.397321 -0.964632 -0.368235 17.234406 2.308542 11.165540 -9.473936 -0.058000 -0.000000 -27.474800 4.784364 0.362694 7.142025 2.391185 11.831159 -60.310404 4.207615 2.907511 -0.534909 -1.100855 -4.173351 -3.660403 -1.354600 -0.000000 -64.824300
2.199400 17.340660 2.890723 -48.393478 -83.856187 73.337467 -12.110772 -1.261631 1.760884 -6.757647 -6.889192 -33.736169 -0.946068 -0.416178 17.258958 2.373234 11.457995 -9.380506 -0.014600 0.000000 -27.071600 4.366029 0.202477 7.749743 1.500706 13.135283 -64.482025 4.368950 3.208549 -2.230849 -0.889436 -3.608627 -2.589339 -1.437800 0.000000 -64.974200
2.246195 17.340561 2.928257 -56.982065 -84.233244 83.203275 -12.209775 -1.647721 1.364509 -6.741161 -6.172276 -35.123009 -0.940427 -0.476564 17.284369 2.420426 11.640846 -9.293732 0.028700 -0.000000 -26.682800 4.027350 -0.010641 8.359532 0.631890 14.291299 -68.712863 4.537944 3.497721 -3.817841 -0.659505 -2.960854 -1.530464 -1.479500 0.000000 -65.342400
2.288081 17.338079 2.966253 -65.463730 -84.331133 92.993509 -12.236820 -2.010287 1.005514 -6.704015 -5.499310 -36.558961 -0.949699 -0.543078 17.295181 2.453028 11.726806 -9.214669 0.071801 0.000000 -26.305500 3.786936 -0.239592 8.966202 -0.219451 15.295191 -72.963879 4.717950 3.782197 -5.321443 -0.417320 -2.256673 -0.492274 -1.481100 -0.000000 -65.885000
2.324831 17.333003 3.004346 -73.116730 -84.213001 101.982007 -12.202532 -2.331827 0.693439 -6.654110 -4.895035 -38.038008 -0.973743 -0.608866 17.277111 2.474474 11.733921 -9.142650 0.114699 -0.000000 -25.937500 3.639010 -0.453380 9.559922 -1.055777 16.140026 -77.195776 4.914591 4.067191 -6.749564 -0.170921 -1.530716 0.509416 -1.448000 0.000000 -66.525600
